<?xml version="1.0" encoding="UTF-8" standalone="no"?>
<!-- Created with Inkscape (http://www.inkscape.org/) -->

<svg
   width="297mm"
   height="210mm"
   viewBox="0 0 297 210"
   version="1.1"
   id="svg5"
   xml:space="preserve"
   inkscape:version="1.2.2 (732a01da63, 2022-12-09)"
   sodipodi:docname="logo.svg"
   inkscape:export-filename="logo2.jpg"
   inkscape:export-xdpi="96"
   inkscape:export-ydpi="96"
   xmlns:inkscape="http://www.inkscape.org/namespaces/inkscape"
   xmlns:sodipodi="http://sodipodi.sourceforge.net/DTD/sodipodi-0.dtd"
   xmlns="http://www.w3.org/2000/svg"
   xmlns:svg="http://www.w3.org/2000/svg"><sodipodi:namedview
     id="namedview7"
     pagecolor="#ffffff"
     bordercolor="#000000"
     borderopacity="0.25"
     inkscape:showpageshadow="2"
     inkscape:pageopacity="0.0"
     inkscape:pagecheckerboard="0"
     inkscape:deskcolor="#d1d1d1"
     inkscape:document-units="mm"
     showgrid="false"
     inkscape:zoom="0.41585598"
     inkscape:cx="573.51586"
     inkscape:cy="815.18606"
     inkscape:window-width="1366"
     inkscape:window-height="697"
     inkscape:window-x="-8"
     inkscape:window-y="-8"
     inkscape:window-maximized="1"
     inkscape:current-layer="layer1" /><defs
     id="defs2"><filter
       style="color-interpolation-filters:sRGB;"
       inkscape:label="Drop Shadow"
       id="filter1648"
       x="-0.21395403"
       y="-0.2143038"
       width="1.4429448"
       height="1.5059977"><feFlood
         flood-opacity="0.498039"
         flood-color="rgb(0,0,0)"
         result="flood"
         id="feFlood1638" /><feComposite
         in="flood"
         in2="SourceGraphic"
         operator="in"
         result="composite1"
         id="feComposite1640" /><feGaussianBlur
         in="composite1"
         stdDeviation="3"
         result="blur"
         id="feGaussianBlur1642" /><feOffset
         dx="3.58255"
         dy="3.89408"
         result="offset"
         id="feOffset1644" /><feComposite
         in="SourceGraphic"
         in2="offset"
         operator="over"
         result="fbSourceGraphic"
         id="feComposite1646" /><feColorMatrix
         result="fbSourceGraphicAlpha"
         in="fbSourceGraphic"
         values="0 0 0 -1 0 0 0 0 -1 0 0 0 0 -1 0 0 0 0 1 0"
         id="feColorMatrix1650" /><feFlood
         id="feFlood1652"
         flood-opacity="0.498039"
         flood-color="rgb(0,0,0)"
         result="flood"
         in="fbSourceGraphic" /><feComposite
         in2="fbSourceGraphic"
         id="feComposite1654"
         in="flood"
         operator="in"
         result="composite1" /><feGaussianBlur
         id="feGaussianBlur1656"
         in="composite1"
         stdDeviation="3"
         result="blur" /><feOffset
         id="feOffset1658"
         dx="3.58255"
         dy="3.89408"
         result="offset" /><feComposite
         in2="offset"
         id="feComposite1660"
         in="fbSourceGraphic"
         operator="over"
         result="fbSourceGraphic" /><feColorMatrix
         result="fbSourceGraphicAlpha"
         in="fbSourceGraphic"
         values="0 0 0 -1 0 0 0 0 -1 0 0 0 0 -1 0 0 0 0 1 0"
         id="feColorMatrix1806" /><feFlood
         id="feFlood1808"
         flood-opacity="0.498039"
         flood-color="rgb(0,0,0)"
         result="flood"
         in="fbSourceGraphic" /><feComposite
         in2="fbSourceGraphic"
         id="feComposite1810"
         in="flood"
         operator="in"
         result="composite1" /><feGaussianBlur
         id="feGaussianBlur1812"
         in="composite1"
         stdDeviation="2.7"
         result="blur" /><feOffset
         id="feOffset1814"
         dx="-4.51713"
         dy="-3.4"
         result="offset" /><feComposite
         in2="offset"
         id="feComposite1816"
         in="fbSourceGraphic"
         operator="over"
         result="fbSourceGraphic" /><feColorMatrix
         result="fbSourceGraphicAlpha"
         in="fbSourceGraphic"
         values="0 0 0 -1 0 0 0 0 -1 0 0 0 0 -1 0 0 0 0 1 0"
         id="feColorMatrix2886" /><feFlood
         id="feFlood2888"
         flood-opacity="0.498039"
         flood-color="rgb(0,0,0)"
         result="flood"
         in="fbSourceGraphic" /><feComposite
         in2="fbSourceGraphic"
         id="feComposite2890"
         in="flood"
         operator="in"
         result="composite1" /><feGaussianBlur
         id="feGaussianBlur2892"
         in="composite1"
         stdDeviation="2.77556e-17"
         result="blur" /><feOffset
         id="feOffset2894"
         dx="-0.778816"
         dy="4.51713"
         result="offset" /><feComposite
         in2="offset"
         id="feComposite2896"
         in="fbSourceGraphic"
         operator="over"
         result="composite2" /></filter><filter
       style="color-interpolation-filters:sRGB;"
       inkscape:label="Drop Shadow"
       id="filter3034"
       x="-0.0030274539"
       y="-0.0032578189"
       width="1.0132821"
       height="1.0457631"><feFlood
         flood-opacity="0.498039"
         flood-color="rgb(0,0,0)"
         result="flood"
         id="feFlood3024" /><feComposite
         in="flood"
         in2="SourceGraphic"
         operator="in"
         result="composite1"
         id="feComposite3026" /><feGaussianBlur
         in="composite1"
         stdDeviation="2.77556e-17"
         result="blur"
         id="feGaussianBlur3028" /><feOffset
         dx="0.9"
         dy="4.51713"
         result="offset"
         id="feOffset3030" /><feComposite
         in="SourceGraphic"
         in2="offset"
         operator="over"
         result="composite2"
         id="feComposite3032" /></filter><filter
       style="color-interpolation-filters:sRGB;"
       inkscape:label="Drop Shadow"
       id="filter5367"
       x="-0.0030274539"
       y="-0.0032578189"
       width="1.0132821"
       height="1.0282299"><feFlood
         flood-opacity="0.498039"
         flood-color="rgb(0,0,0)"
         result="flood"
         id="feFlood5357" /><feComposite
         in="flood"
         in2="SourceGraphic"
         operator="in"
         result="composite1"
         id="feComposite5359" /><feGaussianBlur
         in="composite1"
         stdDeviation="2.77556e-17"
         result="blur"
         id="feGaussianBlur5361" /><feOffset
         dx="0.9"
         dy="2.5"
         result="offset"
         id="feOffset5363" /><feComposite
         in="SourceGraphic"
         in2="offset"
         operator="over"
         result="composite2"
         id="feComposite5365" /></filter></defs><g
     inkscape:label="Layer 1"
     inkscape:groupmode="layer"
     id="layer1"><path
       d="M 140.12279,149.52139 C 116.55953,147.81793 95.81418,132.97544 87.36141,112.29275 81.47108,97.693224 82.495863,80.417494 90.17933,66.303824 c 3.84172,-7.05587 11.01328,-14.84248 18.4403,-19.9529 4.61007,-3.40599 12.29354,-7.05587 17.67197,-8.75934 27.405,-8.02956 56.85858,1.94641 71.97004,24.33256 12.29354,18.24943 12.54998,41.365366 0.76835,59.614786 -4.09817,6.57 -10.50042,13.13998 -17.16006,17.51964 -3.84174,2.43326 -12.80544,6.81294 -16.90361,8.02957 -4.09817,1.21662 -9.22016,2.19032 -14.08667,2.43325 -5.12296,0.48684 -5.37843,0.48684 -10.75686,0 z m 11.01329,-1.70346 c 5.37843,-0.48589 8.96372,-1.21663 13.83024,-2.67621 9.73205,-3.16304 18.95319,-8.75934 25.61186,-15.81616 2.56147,-2.67621 6.14677,-7.29978 6.14677,-7.78663 0,-0.24294 -0.76835,-0.72977 -1.79313,-1.21663 -1.02382,-0.24294 -3.5853,-1.45956 -5.6339,-2.43326 -4.09817,-1.70346 -4.09817,-1.70346 -4.09817,-1.70346 -1.79313,2.43326 -1.79313,2.43326 -1.79313,2.43326 -2.56148,2.92009 -7.42701,7.29977 -10.75684,9.49009 -13.83023,9.00324 -33.03986,10.4628 -48.15035,3.40693 -6.40321,-2.92009 -13.31833,-8.7603 -17.16006,-13.86975 -1.02478,-1.21663 -2.04957,-2.43326 -2.30504,-2.67716 0,-0.24294 -2.04956,0.2439 -4.3546,0.97369 -2.048602,0.97368 -4.86555,1.70347 -5.89033,1.9464 -1.28122,0.2439 -2.04957,0.7298 -2.04957,0.7298 0,0.2439 0.51288,1.21662 1.28122,2.43325 9.98851,15.08639 26.89212,25.06332 45.84531,26.76584 4.61008,0.48683 6.65868,0.48683 11.26972,0 z m -9.98946,-2.67621 c -0.25548,0 -1.02383,-0.2439 -1.5367,-0.2439 -0.51191,-0.24294 -1.28025,-0.72978 -1.79216,-1.45957 -1.02479,-1.70347 -2.56148,-2.18936 -6.40321,-2.43326 -3.58626,-0.24294 -3.58626,-0.24294 -3.58626,-1.21663 -0.25548,-0.72979 -0.51191,-0.97369 -2.0486,-1.21663 -4.35365,-0.48683 -4.35365,-0.48683 -4.35365,-1.45956 0,-0.97369 0,-0.97369 -2.04956,-1.21663 -1.02382,-0.2439 -2.56052,-0.2439 -3.5853,-0.2439 -1.28026,0 -1.28026,0 -1.28026,-1.45957 0,-0.97369 -0.25643,-1.21663 -1.28122,-1.70348 -0.76834,-0.24294 -1.79312,-0.48684 -2.30503,-0.48684 -0.76835,0 -1.02479,-0.24294 -0.25644,-1.21663 0.25644,-0.48589 0.25644,-0.48589 -0.76835,-0.48589 -1.02382,0 -1.28025,-0.2439 -1.79216,-0.97367 -0.25644,-0.48686 -0.76835,-0.97369 -1.28122,-0.97369 -0.51191,0 -0.76835,-0.48686 -0.76835,-0.97273 -0.25547,-0.48684 -0.76835,-1.46053 -1.53668,-2.19032 -1.28026,-1.21663 -1.28026,-1.21663 -1.28026,-1.21663 0.76835,-0.72978 0.76835,-0.72978 0.76835,-0.72978 0.51191,-0.48685 1.28024,-1.21663 1.53668,-1.46054 0.25644,-0.48588 0.25644,-0.48588 0.51191,0.73075 0.25644,1.21663 0.25644,1.21663 1.53669,1.21663 1.02479,-0.2439 1.28122,0 1.28122,0.72979 0.51191,2.6762 1.53669,3.89283 2.81695,3.16304 0.51287,-0.24294 1.02478,-0.24294 1.02478,-0.24294 0,0 0.51191,0.97273 0.76835,1.70346 0.76835,1.45959 1.28026,1.70252 1.79313,1.70252 0.51191,0 1.28026,0 1.28026,-0.24293 0.51191,-0.24296 0.76834,-0.24296 1.02478,0.72977 1.02382,2.19032 3.5853,3.16305 6.14677,2.43326 0.51191,-0.24294 0.76835,-0.24294 1.02382,1.21663 0.25644,2.19032 1.5367,2.67716 2.56148,0.72979 0.51191,-0.72979 0.51191,-0.72979 0.51191,-0.72979 1.79313,1.94642 1.79313,1.94642 1.79313,1.94642 0.76834,0.97367 1.79313,1.9464 2.30504,2.1903 1.02478,0.24296 2.04956,-0.48684 1.79313,-1.45956 -0.51191,-0.9737 0,-0.73074 2.30504,1.21566 1.02478,0.73076 2.81695,2.19032 4.09816,2.92011 1.79217,1.21663 2.30504,1.21663 5.12199,1.21663 3.32983,0 5.37843,-0.72979 8.70825,-3.16305 2.81695,-2.43325 2.81695,-2.43325 2.56148,-0.72979 -0.25644,1.21663 -0.25644,1.21663 -0.25644,1.21663 1.53669,-0.48684 1.53669,-0.48684 1.53669,-0.48684 1.79313,-0.72979 3.07339,-1.70346 3.84174,-3.16305 0.76834,-0.97367 0.76834,-0.97367 0.76834,-0.97367 0.51191,1.21663 0.51191,1.21663 0.51191,1.21663 0.76835,1.21663 2.30504,1.70346 2.81792,0.73074 0.25547,-0.2439 0.51191,-0.9737 0.51191,-1.70347 0,-0.72979 0,-0.97369 0.51287,-0.97369 3.07338,1.21663 5.12199,0.48685 6.40224,-1.70347 1.02479,-1.45957 1.02479,-1.45957 1.02479,-1.45957 0.76834,0.48684 0.76834,0.48684 0.76834,0.48684 0.76835,0.72979 0.76835,0.72979 1.5367,0 0.51189,-0.48684 1.02478,-1.46053 1.28024,-1.94642 0.51289,-0.97367 0.76835,-1.21663 1.28123,-0.73074 1.02381,1.46053 2.5605,0.48684 3.32885,-2.18935 0.51287,-1.46053 0.76834,-1.46053 1.79313,-1.46053 1.02478,0 1.53669,-0.24294 1.79313,-0.72979 0.25643,-0.72978 0.25643,-0.72978 1.02478,0 1.28026,1.21663 1.02382,2.67619 -0.76835,3.40695 -0.51287,0.48683 -1.02478,0.97272 -1.02478,1.45956 0,0.72979 -0.25644,0.72979 -1.02478,0.72979 -0.76835,0 -1.02479,0.48684 -1.28026,0.97369 -0.25644,0.48684 -0.76835,0.97368 -1.28122,0.97368 -0.51191,0 -0.76835,0.24295 -0.76835,0.48589 0,0.2439 -0.51191,0.73074 -1.0238,0.73074 -1.79315,0.48589 -3.07339,0.97273 -3.58627,2.18936 -0.5119,1.21663 -0.5119,1.21663 -3.32885,1.21663 -2.81791,0 -3.84173,0.48683 -4.09817,1.70346 -0.25643,0.48686 -0.51191,0.72979 -2.81791,0.72979 -2.56051,0.2439 -2.81695,0.2439 -3.07339,1.46053 -0.25547,0.97273 -0.25547,0.97273 -0.25547,0.97273 -4.35461,0 -4.35461,0 -4.35461,0 -4.0972,-0.24294 -4.0972,-0.24294 -4.0972,-0.24294 -1.53669,1.45957 -1.53669,1.45957 -1.53669,1.45957 -1.02479,0.97369 -1.5367,1.21663 -3.32983,1.45957 -2.0486,0.2439 -7.42799,0.48685 -8.19633,0.2439 z m 13.57476,-11.4365 c 5.89033,-1.21663 11.26876,-3.40599 16.64815,-6.56998 2.56051,-1.70252 2.56051,-1.70252 2.56051,-1.70252 -2.30504,-1.21663 -2.30504,-1.21663 -2.30504,-1.21663 -4.09721,-1.94737 -11.5252,-4.13673 -16.64719,-4.86652 -6.4032,-0.97367 -15.8798,-0.73073 -22.28301,0.48589 -3.84173,0.73074 -11.52519,2.9201 -14.59858,4.13673 -1.79313,0.72979 -1.79313,0.72979 -1.79313,0.72979 2.56148,1.70347 2.56148,1.70347 2.56148,1.70347 5.63486,3.64988 12.80641,6.56999 19.97701,7.54367 4.09816,0.72979 11.78163,0.48589 15.8798,-0.2439 z m 23.81873,-12.40923 c 1.53669,-1.46053 3.07338,-3.16305 3.84173,-4.13672 1.28122,-1.70348 1.28122,-1.70348 1.28122,-1.70348 -3.58626,-1.45957 -3.58626,-1.45957 -3.58626,-1.45957 -4.86554,-2.19032 -6.91511,-2.67716 -11.78066,-3.89379 -17.16006,-4.13577 -33.2963,-4.37967 -48.91966,-0.48589 -3.5853,0.97273 -12.03711,3.64989 -12.54998,4.13578 -0.51191,0.48684 2.56147,4.38062 5.12295,6.81388 2.81695,2.43326 2.81695,2.43326 2.81695,2.43326 3.32982,-1.21759 3.32982,-1.21759 3.32982,-1.21759 7.9399,-2.91913 18.95319,-4.86555 27.14856,-4.86555 9.4766,0 21.0018,2.43325 28.17335,5.83924 1.02478,0.48685 2.04859,0.97369 2.30504,0.97369 0.25644,0 1.53669,-1.21663 2.81694,-2.43326 z m -7.93893,-0.97369 c -1.02478,-0.97273 -1.28122,-2.43326 -0.51287,-2.43326 0.51287,0 0.76835,0.48686 0.76835,0.7298 0,0.48683 0.51287,1.21662 1.28121,1.46052 0.76835,0.48684 1.02382,0.48684 1.5367,0 0.76834,-0.72979 0.76834,-0.72979 -0.76835,-2.19032 -1.79313,-1.21662 -2.04956,-2.18935 -1.28122,-3.16303 0.76835,-0.72979 2.56148,-0.48685 3.58626,0.24294 1.02381,0.97369 1.28026,2.19032 0.51191,2.19032 -0.51191,0 -0.76835,-0.24295 -0.76835,-0.72979 0,-0.72979 -1.28025,-1.46053 -2.0486,-1.21663 -1.02478,0.24294 -0.51287,1.21663 0.76835,2.18936 1.53669,0.97369 1.79215,2.43325 1.0238,3.40695 -0.76833,0.72977 -2.81693,0.48683 -4.09719,-0.48686 z m -54.55356,-0.48684 c -0.51288,-1.21662 -2.04957,-4.86651 -2.04957,-4.86651 0,-0.24294 0.76835,-0.48589 1.53669,-0.72979 2.81792,-0.97273 4.35461,-0.72978 4.35461,1.21663 0,1.21663 -0.25644,1.70348 -2.04957,2.19032 -1.28025,0.48683 -1.28025,0.72979 -1.02382,1.45956 0.51191,1.21663 0.51191,1.70349 0,1.70349 -0.25643,0 -0.51287,-0.48686 -0.76834,-0.9737 z m 1.79216,-2.91914 c 1.02479,-0.73074 1.28122,-1.21663 0.76835,-1.94737 -0.51191,-0.48589 -1.02382,-0.48589 -2.0486,-0.24294 -1.5367,0.48684 -1.5367,0.48684 -1.02479,1.45957 0.51288,1.21663 0.76835,1.21663 2.30504,0.73074 z m 47.38201,1.70252 c -1.79216,-0.24294 -3.58529,-2.91915 -2.0486,-2.91915 0.25644,0 0.51191,0.48589 0.51191,0.72979 0,0.97273 1.28122,1.70346 2.56148,1.45956 1.53669,-0.24293 1.28121,-1.21662 -0.76835,-2.43325 -1.79313,-1.21663 -2.0486,-2.18936 -1.02478,-3.16304 1.28122,-1.21663 4.3546,0 4.3546,1.70347 0,0.97273 -0.51191,0.97273 -0.76834,0 -0.25644,-0.72979 -1.79313,-1.46053 -2.56148,-1.21663 -1.02478,0.24294 -0.51191,1.21663 1.02478,2.18936 1.28026,0.73074 1.5367,1.21663 1.5367,1.94737 0,1.21662 -1.28026,2.18935 -2.81792,1.70252 z m -42.00358,-0.24294 c -0.25547,-0.48686 -1.79217,-6.08315 -1.53669,-6.08315 0.25643,-0.24391 4.3546,-0.97369 4.86651,-0.72979 1.02478,0.24294 1.28026,1.94642 0.51191,2.6762 -0.51191,0.72979 -0.51191,0.72979 0.76835,1.70348 1.02478,0.72978 1.28122,1.21663 1.02478,1.45957 -0.25644,0.2439 -0.76835,0 -1.79313,-0.97273 -1.02382,-0.72979 -1.79217,-0.97369 -2.56051,-0.97369 -0.51287,0 -0.76835,0.2439 -0.76835,0.48685 0,0.24294 0,0.97368 0.25548,1.45957 0.25643,1.21663 -0.25548,1.70346 -0.76835,0.97369 z m 2.30504,-4.13674 c 0.51287,0 1.02478,-0.48684 1.02478,-0.97273 0,-0.97368 -0.76834,-1.21759 -2.56147,-0.73074 -1.02382,0.2439 -1.28026,0.48684 -1.02382,1.21663 0.25547,0.97369 0.76834,1.21663 2.56051,0.48684 z m 31.24673,2.43326 c -1.28026,-0.24294 -1.53669,-0.24294 -1.28026,-0.97273 0,-0.48684 0.25644,-1.94737 0.51192,-3.164 0.51287,-2.67619 0.51287,-2.67619 0.51287,-2.67619 1.79216,0.24293 1.79216,0.24293 1.79216,0.24293 2.81792,0.48684 3.58626,0.72978 3.58626,0.97369 0,0.24294 -1.02478,0.24294 -2.30504,0.24294 -2.30504,-0.24294 -2.30504,-0.24294 -2.30504,0.72978 0,0.73075 0,0.73075 1.5367,0.97369 1.28025,0.2439 1.79216,0.48685 1.79216,0.72979 0,0.48684 -0.25547,0.48684 -0.51191,0.48684 -1.79313,-0.48684 -3.32982,-0.72978 -3.32982,-0.48684 0,0.2439 0,0.73074 -0.25547,1.21663 -0.25644,0.73074 0,0.73074 2.0486,1.21663 1.02478,0.2439 2.0486,0.48684 2.0486,0.73074 0,0.48589 -1.53669,0.24295 -3.84173,-0.2439 z m -24.58709,-0.24294 c -2.0486,-0.72979 -2.81695,-3.64989 -1.28025,-5.35336 1.02382,-1.45958 3.58529,-1.45958 4.86555,-0.24391 1.79313,1.70348 1.53669,4.13674 -0.51191,5.35337 -1.28026,0.73074 -1.79313,0.73074 -3.07339,0.2439 z m 3.07339,-1.46053 c 0.76835,-0.72979 0.51191,-2.6762 -0.25644,-3.64989 -0.51191,-0.72979 -2.0486,-0.72979 -3.07338,-0.24294 -1.02382,0.48684 -1.02382,3.16304 0,4.13673 0.76834,0.72979 2.56147,0.72979 3.32982,-0.2439 z m 16.39171,-0.48589 c -0.76834,-1.21663 -1.28025,-1.70347 -2.0486,-1.70347 -0.76931,0 -1.02478,0.24294 -1.02478,1.45957 0,1.21663 0,1.46053 -0.51288,1.46053 -0.51191,0 -0.51191,-0.2439 0,-5.11042 0.25644,-1.45957 0.25644,-1.45957 0.25644,-1.45957 2.04957,0 2.04957,0 2.04957,0 2.81695,0.24294 3.32886,0.7298 3.32886,2.18936 -0.25548,0.72978 -0.51191,1.21663 -1.02382,1.46053 -0.76835,0.24294 -0.76835,0.24294 -0.76835,0.24294 0.76835,1.21663 0.76835,1.21663 0.76835,1.21663 1.02382,1.46053 1.28025,1.94642 0.51191,1.94642 -0.25644,0 -1.02479,-0.72979 -1.5367,-1.70252 z m 0.76835,-3.164 c 0.25644,-0.97273 -0.51191,-1.21663 -2.0486,-1.21663 -1.28122,0 -1.28122,0 -1.28122,0.97369 0,1.21663 0,1.21663 1.53669,0.97272 1.28122,0 1.79313,-0.24294 1.79313,-0.72978 z m -12.54998,3.40695 c -1.02478,-0.72979 -1.28026,-2.92011 -0.76835,-4.13674 0.76835,-1.70346 4.86652,-1.9464 5.63486,-0.48684 0.51191,0.97369 0.25548,1.21663 -0.76834,0.48684 -1.02479,-0.97273 -2.81791,-0.72977 -3.58626,0.24294 -1.79217,1.94738 0.25643,4.62358 3.07338,4.13674 1.28122,-0.48589 1.28122,-1.70252 0,-1.70252 -1.53669,0 -1.02382,-0.97368 0.76835,-0.97368 1.28122,-0.24391 1.28122,-0.24391 1.28122,1.21663 0,1.21663 -0.25644,1.45957 -1.02478,1.94641 -0.51191,0.2439 -1.5367,0.2439 -2.30504,0.2439 -1.28026,0 -1.79313,-0.2439 -2.30504,-0.97368 z m 60.70032,0.48684 c 1.79313,-4.13673 3.32982,-8.27346 4.3546,-12.65311 1.02383,-4.379676 1.02383,-15.816176 0,-20.439746 -1.79312,-7.78564 -5.63486,-15.81617 -10.24494,-22.14225 -3.32982,-4.37968 -9.47659,-9.97693 -14.08665,-12.89608 -3.84174,-2.67716 -12.03807,-6.56998 -16.64815,-7.78661 -16.64719,-4.86652 -35.60038,-2.67716 -50.19896,5.83924 -12.54997,7.29977 -22.02657,18.98017 -25.86829,31.63234 -3.073387,9.97693 -3.073387,21.16953 -0.25643,30.659606 1.28024,3.64988 3.58528,9.00324 4.09815,9.24618 1.28026,0.48685 12.54998,-3.16304 12.03711,-3.89283 -4.097212,-9.00322 -5.121992,-13.382896 -5.121992,-20.439726 0,-21.16953 16.135272,-39.17506 38.930192,-43.06884 5.12199,-0.7298 14.59858,-0.48684 19.72153,0.72979 12.03711,2.92009 22.28204,9.97693 28.68525,19.9529 8.45181,12.65312 8.96372,29.19908 1.53669,42.581976 -1.53669,2.67716 -1.53669,2.67716 -1.53669,2.67716 3.07338,1.21663 3.07338,1.21663 3.07338,1.21663 4.86652,1.94642 8.70825,3.40598 9.22016,2.92009 0.25644,-0.2439 1.28026,-1.94736 2.30504,-4.13672 z m -4.35364,-1.21663 c 0,0 0,-0.48684 0,-0.97369 0.25547,-0.72978 0,-0.97369 -2.30504,-1.70347 -2.30504,-0.72979 -3.07339,-1.21663 -2.04957,-1.70252 0,-0.2439 1.28122,0 2.56148,0.48589 2.56147,0.72978 2.81695,0.72978 3.32982,-0.72979 0,-0.24294 0.25547,0 0.51191,0.2439 0.51191,0.24296 0.25644,0.72979 -0.25644,2.4323 -1.02382,2.19032 -1.28025,2.43422 -1.79216,1.94738 z M 93.50818,112.77959 c -0.51191,-0.97369 -0.76835,-2.67716 0,-3.16305 0.51287,-0.73073 1.28122,0 1.02478,1.21567 -0.25643,0.48685 0,0.97369 0.25644,1.21663 0.76834,0.73075 0.76834,0.48685 0.51191,-1.70251 0,-1.21663 1.02478,-2.43325 2.30504,-2.43325 2.049558,0 3.32982,3.16304 1.793128,4.37967 -1.02479,0.72978 -1.02479,0.72978 -1.02479,-1.46054 0,-0.97271 -0.25547,-1.45957 -0.768338,-1.45957 -0.51191,0 -0.51191,0.2439 -0.51191,1.70348 0,0.97272 -0.25644,1.94641 -0.51191,2.19031 -0.76835,0.72979 -2.306,0.48589 -3.07435,-0.48684 z m 102.44842,-5.11041 c -3.5853,-0.97273 -3.84173,-1.94642 -1.02478,-2.67618 2.81791,-0.72979 3.07338,-0.72979 1.02478,-1.45959 -1.02478,-0.2439 -1.79313,-0.73073 -1.79313,-0.97367 0,-0.72979 0.76835,-0.48685 3.84173,0.24294 2.04957,0.73073 2.81792,0.97369 2.81792,1.46053 0,0.48587 -0.51288,0.72979 -2.30504,1.21661 -1.02479,0.24294 -2.30504,0.48684 -2.30504,0.48684 0,0.24296 0.51191,0.48589 1.53669,0.72979 1.28026,0.48684 1.79217,0.72979 1.79217,1.21663 0,0.72979 0.25643,0.72979 -3.5853,-0.2439 z m -104.24059,0 c -0.25643,-0.72979 -0.25643,-0.72979 2.30504,-1.45956 2.30504,-0.7298 3.07339,-1.46054 2.30504,-2.43325 -0.51191,-0.48686 -1.02478,-0.48686 -3.07338,0 -2.56148,0.72977 -2.81792,0.72977 -2.81792,0 0,-0.48686 3.58626,-1.70348 5.12295,-1.70348 1.79313,0 3.073388,2.67619 1.79313,3.89377 -0.25643,0.48589 -1.79313,1.21663 -3.07434,1.45958 -2.04861,0.72978 -2.30504,0.72978 -2.56052,0.24294 z m 108.59423,-8.029548 c 0.25644,-1.216628 0,-1.703468 -0.51191,-1.703468 -0.51191,-0.24294 -0.51191,0.2439 -0.76834,1.46053 -0.51191,2.189356 -1.28026,1.946416 -1.28026,-0.2439 0,-1.45957 0,-1.45957 -0.76835,-1.7025 -0.76834,0 -1.02478,0 -1.02478,1.21662 0,1.702506 -0.51191,2.676196 -1.02478,2.189346 -0.25548,-0.48684 0,-4.379656 0.51287,-4.622596 0,-0.24392 6.14677,0.48587 6.40321,0.72977 0,0 0,0.97273 -0.25644,2.18936 0,1.703466 -0.25643,2.190316 -0.76834,2.190316 -0.51288,0 -0.51288,-0.24391 -0.51288,-1.703478 z M 89.92288,100.12648 c -0.25643,-0.243908 -0.25643,-1.216626 -0.25643,-1.946416 0,-1.70346 1.02478,-2.67716 3.07338,-2.92009 2.30504,-0.24392 3.32983,0.72977 3.58626,3.16303 0.25644,1.703476 0.25644,1.703476 0.25644,1.703476 -1.79313,0.24294 -1.79313,0.24294 -1.79313,0.24294 -1.02478,0.2439 -2.56148,0.48684 -3.32982,0.48684 -1.28025,0.24294 -1.28025,0 -1.5367,-0.72978 z m 5.12199,-1.216626 c 0.25644,-0.24294 0.25644,-0.72979 0,-1.21663 -0.25547,-0.72979 -0.76834,-0.97369 -1.53669,-0.97369 -1.79217,0 -2.81695,0.48684 -2.81695,1.46053 0,0.48685 0.25645,0.97273 0.25645,1.21663 0.25546,0.242938 3.84172,-0.2439 4.09719,-0.48684 z m 100.14338,-4.62357 c 0,-0.7298 0.25644,-0.7298 2.04861,-0.97273 2.30504,0 2.30504,0 -0.25548,-0.48684 -1.28122,-0.48685 -1.79313,-0.72979 -1.79313,-1.21663 0,-0.48685 0.51191,-0.72979 2.30504,-1.21663 2.30504,-0.48685 2.30504,-0.48685 2.30504,-0.48685 -2.30504,0 -2.30504,0 -2.30504,0 -1.79313,0 -2.30504,-0.24294 -2.30504,-0.48684 0,-0.48685 0.51191,-0.72979 2.04861,-0.72979 1.28122,0 2.81791,0 3.32982,-0.24294 1.28122,0 1.28122,0 1.28122,0.97273 0,0.97369 -0.25644,1.21663 -1.53766,1.46053 -2.56051,0.72979 -2.56051,0.97273 -0.25547,1.45957 2.0486,0.48685 2.30504,0.48685 2.0486,1.45956 0,0.97369 0,0.97369 -3.32982,0.97369 -3.32886,0.24294 -3.5853,0 -3.5853,-0.48683 z M 92.48436,93.069654 c -4.35461,-1.70251 -4.35461,-2.18936 0.25547,-3.64989 3.07435,-1.21663 3.32983,-1.21663 3.32983,-0.72979 0,0.48685 -0.25548,0.97369 -0.76835,1.21663 -0.51191,0.24294 -0.76835,0.72979 -0.76835,1.46054 0,0.97272 0.25644,1.45957 0.76835,1.45957 0.76835,0.24294 1.28122,1.21663 0.51287,1.45957 0,0 -1.53765,-0.48686 -3.32982,-1.21663 z m 1.02382,-1.70251 c 0,-0.73075 -0.25547,-0.73075 -1.02382,-0.48685 -1.02478,0.24294 -1.28122,0.48685 -0.51287,0.72979 1.02478,0.48684 1.53669,0.48684 1.53669,-0.24294 z m 2.04956,-3.8938 c -0.25643,0 -1.53669,-0.24294 -3.07338,-0.48684 -2.56148,-0.48587 -2.81791,-0.48587 -2.81791,-1.21663 0,-0.48587 0.76834,-0.97273 2.56147,-1.45956 2.30504,-0.97369 2.30504,-0.97369 2.30504,-0.97369 -1.53669,-0.24294 -1.53669,-0.24294 -1.53669,-0.24294 -2.30504,-0.24391 -2.56148,-0.24391 -2.56148,-0.97369 0,-0.72979 0,-0.72979 3.58626,0 2.30504,0.2439 2.81695,0.48684 2.81695,0.97369 0.25644,0.72978 -0.25547,0.97272 -1.79313,1.45956 -1.02382,0.48684 -2.0486,0.73076 -2.0486,0.9737 -0.25644,0.24293 0.51191,0.48683 1.53669,0.48683 1.28122,0.24294 1.5367,0.48686 1.5367,0.97273 0,0.48684 0,0.72978 0,0.72978 0,0 -0.25548,-0.24294 -0.51192,-0.24294 z m 99.63051,0 c -0.25643,-0.24294 -0.25643,-1.21663 -0.51191,-2.43326 -0.25643,-2.19031 -0.25643,-2.19031 -0.25643,-2.19031 1.79313,-0.24294 1.79313,-0.24294 1.79313,-0.24294 0.76834,-0.24294 2.30504,-0.48684 3.07338,-0.48684 1.5367,-0.24294 1.79313,-0.24294 2.04861,0.72978 0.51287,3.40694 0.51287,3.65086 0,3.65086 -0.51191,0 -0.76835,-0.48686 -1.02479,-2.19032 -0.25547,-0.48685 -0.51191,-0.72979 -1.02382,-0.97369 -0.51287,0 -0.51287,0.2439 -0.25643,1.46052 0,1.45957 0,1.70349 -0.51191,1.94642 -0.25644,0.24294 -0.51288,-0.24293 -0.76835,-1.45956 -0.25644,-1.46054 -0.51287,-1.94738 -1.53669,-1.2176 -0.25644,0.24391 -0.51288,0.73074 -0.25644,1.70347 0.25644,0.73076 0.25644,1.46053 0.25644,1.70347 -0.25644,0.24294 -0.76835,0.24294 -1.02479,0 z m 0.25644,-7.29977 c -1.79313,0 -2.04956,-0.24293 -2.04956,-0.97369 0,-0.48587 0.76834,-1.21663 2.56147,-2.43325 2.56148,-1.70251 3.32982,-1.94641 3.07339,-0.97272 0,0.24294 -0.76835,1.21663 -1.79313,1.94641 -2.04861,1.21662 -2.04861,1.21662 -2.04861,1.21662 2.56148,0 2.56148,0 2.56148,0 2.30504,0 3.07339,0.24294 3.07339,1.46055 0,0 -1.79313,0 -5.37843,-0.24392 z M 94.7894,77.983254 c -2.81791,-0.97271 -2.81791,-0.97271 -2.81791,-1.9464 0.25643,-0.48588 0.51287,-1.45957 0.76834,-1.94642 0.76835,-1.21663 2.56148,-1.45957 3.58626,-0.48684 0.76835,0.73076 0.76835,0.97369 0.25644,1.94738 -0.25644,1.45957 -0.25644,1.45957 0.76834,1.70251 1.023818,0.48684 1.536698,1.21663 0.768348,1.46053 0,0.24293 -1.536688,-0.2439 -3.329818,-0.73076 z m 0.51191,-2.67619 c 0.25643,-0.72978 0,-0.97271 -0.51191,-0.97271 -1.02478,0 -1.53669,1.45956 -0.76835,1.9464 0.76835,0.48588 1.28026,0 1.28026,-0.97369 z m 96.30165,-0.72978 c -0.76835,-0.72979 -1.02478,-1.21663 -1.02478,-2.43325 0.25643,-1.21663 0.51191,-1.70349 1.53669,-2.43326 1.79313,-0.97369 3.07338,-0.97369 4.35364,0.24294 1.79313,1.70346 1.53669,3.89378 -0.76835,4.86651 -1.79216,0.97369 -3.07338,0.73075 -4.0972,-0.24294 z m 3.84173,-1.46054 c 1.02382,-0.72978 1.02382,-0.72978 0.51191,-1.70251 -0.51191,-0.48683 -1.02478,-0.97369 -1.28026,-0.97369 -1.28121,0 -2.56147,0.72979 -2.81791,1.45957 -0.51191,1.94738 1.79313,2.67717 3.58626,1.21663 z m -98.35025,-1.21663 c -1.5367,-0.72978 -2.81791,-1.21565 -2.81791,-1.21565 0,-0.24392 2.306,-4.13674 2.56147,-4.13674 0.76835,0 0.76835,0.48589 0,1.70252 -0.76834,1.46053 -0.51191,2.1903 0.25644,2.1903 0,0 0.51191,-0.48683 1.024778,-1.21663 0.25547,-0.72977 0.76835,-1.45956 1.02382,-1.45956 0.76835,0 0.76835,0.72979 0,1.94642 -0.76835,1.21663 -0.76835,1.21663 0,1.70346 0.76835,0.48588 0.76835,0.24294 1.536692,-0.72977 0.51288,-1.46055 1.5367,-1.94738 2.04957,-1.70348 0.25547,0.24293 -2.30504,4.37967 -2.56148,4.37967 -0.256432,0 -1.536692,-0.72979 -3.07338,-1.46054 z m 91.69061,-2.6762 c 0,-0.48683 0.51287,-0.97367 1.53669,-1.45956 0.76835,-0.73074 1.53669,-1.21663 1.53669,-1.21663 0,0 -1.02382,0.24294 -2.0486,0.48589 -3.07339,1.21663 -3.5853,0.48684 -1.28026,-1.94642 1.53669,-1.70347 1.53669,-1.70347 1.53669,-1.70347 -1.79312,1.21759 -1.79312,1.21759 -1.79312,1.21759 -1.79313,0.97272 -2.81695,1.21567 -2.81695,0.48588 0,-0.48588 4.35364,-3.16305 5.37842,-3.64989 0.25548,0 0.76835,0.2439 1.02382,0.7298 0.25644,0.73073 0.25644,0.97367 -1.02382,2.1903 -1.53669,1.70348 -1.53669,1.70348 -1.53669,1.70348 2.30504,-0.72979 2.30504,-0.72979 2.30504,-0.72979 2.0486,-0.72978 2.0486,-0.72978 2.0486,-0.72978 0.51191,0.97272 0.51191,0.97272 0.51191,0.97272 0.76835,0.72979 0.51287,0.72979 -2.0486,2.43326 -2.81695,1.70348 -3.32982,1.94642 -3.32982,1.21662 z m -87.84888,-2.1903 c -1.536692,-0.72979 -2.561482,-2.4323 -2.305042,-3.64989 1.02478,-2.91914 5.634862,-3.16304 6.915112,-0.24295 0.51191,1.46054 0,3.16305 -1.53668,3.89284 -1.28026,0.48684 -1.5367,0.48684 -3.07339,0 z m 3.07339,-1.45958 c 0.51191,-0.72978 0.25643,-1.94641 -0.76835,-2.9201 -1.28026,-0.72979 -2.56148,-0.48683 -3.07339,0.72979 -0.511912,1.70347 2.56148,3.40694 3.84174,2.19031 z m 1.02477,-5.10945 c -2.30503,-2.19032 -2.30503,-2.19032 -2.30503,-2.19032 1.53669,-1.21663 1.53669,-1.21663 1.53669,-1.21663 1.53669,-1.45957 2.81694,-1.70347 3.84173,-0.72978 0.76834,0.97273 0.76834,1.94641 -0.25644,2.6762 -1.02478,0.97369 -1.02478,1.46053 0,2.19032 0.76835,0.48683 0.76835,1.21662 -0.25644,1.21662 -0.25547,0 -1.28025,-0.97369 -2.56051,-1.94641 z m 1.53669,-1.94737 c 0.76835,-0.97273 0.51191,-1.45958 -0.25643,-1.45958 -1.02479,0 -1.79312,0.97369 -1.28026,1.70348 0.76835,0.72977 1.28026,0.72977 1.53669,-0.2439 z m 75.55534,2.67716 c 0,-0.2439 0.25548,-1.21663 0.51191,-2.43326 0.51191,-1.94642 0.51191,-1.94642 0.51191,-1.94642 -1.53669,0.97273 -1.53669,0.97273 -1.53669,0.97273 -1.0238,0.97369 -1.53669,1.21663 -2.0486,0.72979 -0.25644,-0.24295 0.25645,-0.72979 2.0486,-2.43326 3.07435,-2.67621 3.8427,-2.67621 3.07435,0.73074 -1.02478,2.67619 -0.76833,2.67619 0.76835,1.21663 1.28025,-1.21663 1.53669,-1.21663 2.0486,-0.73074 0.25644,0.2439 0,0.73074 -2.0486,2.43326 -2.56148,2.1903 -2.81792,2.43326 -3.32983,1.46053 z m -72.22648,-4.86652 c -1.02382,-1.21663 -2.0486,-2.19032 -2.0486,-2.43326 0,-0.97369 1.02478,-0.72979 2.81695,0.97273 1.79313,1.94737 1.79313,1.94737 1.79313,1.94737 1.28122,-0.97369 1.28122,-0.97369 1.28122,-0.97369 0.76834,-0.72978 1.28025,-0.97368 1.53669,-0.72978 0.25547,0.48684 0,0.97273 -1.28122,1.94641 -1.02382,0.72979 -1.79217,1.45958 -1.79217,1.45958 -0.25643,0 -1.28121,-0.97273 -2.306,-2.18936 z m 66.59164,0 c -2.30504,-0.72979 -2.81695,-3.16305 -1.28026,-4.86651 1.28026,-1.46053 2.5605,-1.70349 4.09719,-0.9737 2.30504,0.9737 2.56148,3.16402 0.76835,5.11042 -1.53669,1.21663 -2.30504,1.21663 -3.58528,0.72979 z m 2.56147,-1.70348 c 1.28024,-1.21663 0.76835,-3.40693 -1.0248,-3.40693 -1.02478,0 -2.30502,1.46052 -2.30502,2.43422 0,1.7025 1.79313,2.18934 3.32982,0.97271 z m -64.54207,-2.19031 c -1.02478,-1.45958 -1.53669,-2.67621 -1.53669,-2.67621 0,0 1.02382,-0.72977 2.0486,-1.21663 1.5367,-0.97367 2.04861,-1.21662 2.30504,-0.72977 0.25644,0.24294 0.25644,0.48684 -0.25643,0.72977 -1.79217,0.9737 -2.30504,1.70349 -2.04861,2.19032 0.51191,0.24294 0.76835,0.24294 1.79313,-0.48683 1.02382,-0.48686 1.5367,-0.72979 1.79217,-0.2439 0.25644,0.2439 -0.25547,0.97367 -1.79217,1.70346 -0.25643,0.2439 -0.51287,0.48684 -0.25643,0.97369 0.25643,0.72978 0.25643,0.72978 0.25643,0.72978 1.79217,-0.72978 1.79217,-0.72978 1.79217,-0.72978 1.79313,-1.21662 2.04957,-1.21662 2.04957,-0.48685 0,0.48685 -3.32983,2.67621 -4.09817,2.67621 0,0 -1.02479,-0.97273 -2.04861,-2.43326 z m 56.85861,0.48684 c -0.25644,-0.48684 2.81695,-5.10945 3.58529,-5.10945 1.02479,0 0.76835,0.48684 -1.02478,2.92009 -1.53669,2.6762 -2.30504,3.16305 -2.56051,2.18936 z m -3.58626,-1.45956 c -0.51191,-0.2439 -0.25548,-0.9737 0.76835,-2.67716 1.28121,-2.18936 1.28121,-2.18936 1.28121,-2.18936 -1.02478,-0.72979 -1.02478,-0.72979 -1.02478,-0.72979 -0.51191,-0.48684 -0.76834,-0.73074 -0.51191,-0.97369 0.51191,-0.48684 5.37843,1.70348 4.86555,2.43326 -0.25547,0.48685 -0.51191,0.48685 -1.28025,0 -1.02478,-0.48684 -0.76835,-0.72978 -2.30504,2.19032 -0.51191,1.21662 -1.28026,2.18935 -1.28026,2.18935 0,0 -0.25643,-0.24293 -0.51287,-0.24293 z m -46.8701,-0.7298 c -0.25547,-0.48683 -0.25547,-0.48683 0.25644,-0.97369 0.25643,0 0.51191,0 0.76834,0.24296 0.51191,0.48683 1.28026,0.2439 2.04861,-0.24296 1.02478,-0.97367 0.25643,-1.45956 -1.79217,-1.21663 -2.04957,0.24296 -2.81791,0 -2.81791,-1.45956 0,-1.46053 2.56147,-2.67716 3.84173,-1.94737 1.02478,0.48684 0.76835,0.97368 -0.51191,0.97368 -1.28026,0 -2.0486,0.48685 -2.0486,0.97369 0,0.24294 0.76834,0.24294 2.0486,0.24294 2.0486,-0.48684 3.07339,0.24295 3.07339,1.70348 0,1.70346 -3.5853,3.16303 -4.86652,1.70346 z m 44.05315,-0.73073 c 0,-0.24296 -0.25644,-0.72979 -0.51287,-0.97273 -0.25548,-0.97369 -2.56052,-1.70348 -3.07339,-0.72979 -0.51191,0.48589 -0.76835,0.48589 -2.0486,0 -1.28026,-0.48684 -1.79313,-0.97369 -2.30504,-1.94737 -0.76835,-1.70252 -1.5367,-1.94642 -1.79313,-0.48589 -0.51191,1.21663 -1.53669,1.45957 -1.53669,0.24294 0,-0.24294 0.25643,-1.70347 0.51287,-2.9201 0.51191,-2.18936 0.51191,-2.18936 0.51191,-2.18936 1.53669,0.24294 1.53669,0.24294 1.53669,0.24294 0.76835,0 2.0486,0 2.56148,0.24296 1.02382,0.48683 1.02382,0.73073 1.02382,1.70346 0,0.72979 -0.51191,1.21663 -1.02382,1.46053 -0.76835,0.48589 -0.76835,0.48589 0,1.94642 0.76834,1.45957 0.76834,1.45957 0.76834,1.45957 2.04861,-2.43326 2.04861,-2.43326 2.04861,-2.43326 2.0486,-2.43326 3.07338,-3.16305 3.58529,-2.18936 0.25644,0.72979 0.76835,6.56904 0.51288,6.56904 0,0.2439 -0.51288,0 -0.76835,0 z m -0.76835,-4.13578 c 0,-1.21663 0,-1.21663 0,-1.21663 -0.76834,0.97273 -0.76834,0.97273 -0.76834,0.97273 -0.51288,0.48684 -0.51288,0.97369 -0.25644,1.21663 0.76835,0.2439 1.02478,0.2439 1.02478,-0.97273 z m -5.8913,-2.67716 c -0.25547,-0.97273 -2.0486,-1.21663 -2.56051,-0.72979 -0.25644,0.97369 0.25548,1.21663 1.53669,1.21663 0.76835,0 1.02382,0 1.02382,-0.48684 z m -27.14856,1.94642 c -0.51191,-2.43326 -0.51191,-3.16305 0,-3.40598 0.76835,-0.2439 0.76835,-0.2439 1.53669,2.43325 0.25644,1.45957 0.51288,2.43326 0.76835,2.43326 0,0 0.76835,0 1.79313,-0.2439 1.02478,-0.24295 1.28026,-0.24295 1.28026,0.2439 0,0.48684 -0.25548,0.72978 -1.28026,0.97273 -1.02478,0 -2.0486,0.2439 -2.30504,0.48684 -0.76835,0 -1.02478,-0.24294 -1.79313,-2.9201 z m -13.06189,2.19031 c 0,-0.48684 0,-0.72978 -0.25644,-0.72978 -0.76834,-0.2439 -0.76834,-1.46053 0,-1.46053 0.51288,0 1.28122,1.46053 1.02479,2.19031 -0.25644,0.24295 -0.51191,0.48685 -0.51191,0.48685 -0.25644,0 -0.51288,-0.2439 -0.25644,-0.48685 z m 19.4651,-0.72978 c -0.51191,-1.21663 -0.25644,-5.84021 0,-6.08314 0.76835,0 0.76835,0.72977 1.28026,3.89282 0.25643,2.19032 0,2.67716 -0.51191,2.67716 -0.25644,0 -0.76835,-0.2439 -0.76835,-0.48684 z m 2.81695,-0.48685 c -0.25548,-0.48684 -0.25548,-1.94641 -0.25548,-3.16304 -0.25643,-2.67715 -0.25643,-2.67715 -0.25643,-2.67715 2.56147,0 2.56147,0 2.56147,0 2.04861,-0.24296 2.30504,0 2.81695,0.73073 0.25644,0.7298 0.25644,0.97273 0,1.45957 -0.51191,0.48685 -0.25643,0.48685 0,0.97369 0.76835,0.48589 0.76835,1.94642 0.25644,2.43326 -0.25644,0.24294 -1.53669,0.48589 -2.81791,0.72979 -1.79217,0 -2.04861,0 -2.30504,-0.48685 z m 3.84173,-1.70347 c 0,-0.24294 -0.51191,-0.48684 -1.28026,-0.48684 -1.02478,-0.24295 -1.28025,0 -1.28025,0.48684 0,0.97369 0.25547,0.97369 1.53669,0.97369 0.76835,-0.2439 1.28026,-0.48685 1.02382,-0.97369 z m -0.25547,-2.43326 c 0,-0.48683 -0.25644,-0.72979 -1.02479,-0.72979 -1.28025,0 -1.79312,0.48686 -1.53669,1.21663 0.51191,0.48685 2.30504,0 2.56148,-0.48684 z m 3.32982,4.37968 c 0,-0.24295 0,-1.70252 0,-3.16305 0.25547,-2.92009 0.25547,-2.92009 0.25547,-2.92009 1.28026,0 1.28026,0 1.28026,0 2.56148,0 4.09817,0.2439 3.8427,0.97367 -0.25644,0.24296 -0.76835,0.48686 -2.04957,0.24296 -1.28026,-0.24296 -1.53669,-0.24296 -1.53669,0.48683 0,0.48684 0.25643,0.72979 1.28122,0.72979 1.02382,0.2439 1.53669,0.2439 1.79216,0.73074 0,0.48589 -0.25547,0.72979 -1.53669,0.48589 -1.53669,0 -1.79313,0 -1.79313,0.73074 0,0.72979 0.25644,0.72979 1.79313,0.72979 1.28122,0.24294 1.79313,0.48684 1.79313,0.72978 0,0.48685 -0.51191,0.48685 -2.30504,0.48685 -1.53669,0 -2.56148,0 -2.81695,-0.2439 z m 38.67375,65.212036 c 1.53669,-2.43326 3.84173,-8.51638 3.84173,-9.49007 0,-0.24294 -2.0486,-1.94641 -4.86652,-3.405976 -8.45179,-5.35336 -14.59857,-11.43651 -18.4403,-18.49334 -3.32982,-6.32608 -4.61008,-12.16628 -4.86651,-20.92562 0,-6.32705 0,-6.32705 0,-6.32705 -2.04861,-0.48684 -2.04861,-0.48684 -2.04861,-0.48684 -1.79313,-0.72979 -5.37842,-1.45958 -9.47659,-1.94642 -1.53669,-0.24293 -1.53669,-0.24293 -1.53669,-0.24293 0.25547,6.32608 0.25547,6.32608 0.25547,6.32608 0.25644,6.81293 0.76931,11.67945 2.04957,16.78986 3.58529,14.11269 11.52519,26.03604 23.05039,34.552426 2.30503,1.70346 9.73302,6.08314 10.24493,6.08314 0.25643,0 1.02478,-1.21663 1.79313,-2.43326 z m -11.52519,-5.8402 c 0,0 0.51191,-0.72976 1.02381,-1.45955 0.76835,-0.9737 1.28123,-1.94642 1.28123,-3.40695 0.25546,-2.189346 0.25546,-2.189346 -0.76834,-3.163036 -1.28124,-0.97369 -1.28124,-0.97369 -1.28124,-0.97369 -2.5605,2.19032 -2.5605,2.19032 -2.5605,2.19032 -1.79313,1.459566 -2.81791,1.946406 -3.07338,1.703466 -0.25644,-0.2439 0.25547,-0.973688 2.30504,-2.677156 2.56051,-2.18936 2.56051,-2.18936 2.56051,-2.18936 -0.76835,-0.97369 -0.76835,-0.97369 -0.76835,-0.97369 -0.51191,-0.48683 -0.76834,-0.97369 -0.76834,-1.21663 0,-0.48683 1.28122,0.24294 3.32982,2.43326 2.56148,2.43326 2.56148,2.43326 2.56148,2.43326 -0.25646,1.946416 -0.25646,1.946416 -0.25646,1.946416 0,1.21663 0,2.19032 0,2.19032 0.25646,0 1.28026,-0.24295 2.30504,-0.72979 1.79313,-0.48684 2.56148,-0.48684 2.56148,0.24294 0,0.2439 -1.28122,0.48685 -2.56148,0.97369 -2.04858,0.48683 -3.07337,0.97273 -3.84171,1.7025 -1.0248,1.21758 -1.5367,1.46054 -2.04861,0.97368 z m -8.96468,-8.759326 c 0,-0.2439 0,-0.48683 0.25644,-0.48683 0,-0.24294 1.53669,-1.21663 3.07338,-2.43326 3.07339,-2.19032 3.5853,-2.43326 3.5853,-1.45957 0,0.24294 -5.89034,4.86652 -6.40321,4.86652 0,0 -0.25547,-0.24392 -0.51191,-0.48686 z m -2.30504,-2.92009 c -0.76835,-0.72979 -1.28026,-1.70348 -1.53669,-1.94642 -0.25644,-0.48684 6.65964,-4.86652 6.91512,-4.62358 0.51287,0.48685 0.25643,0.97369 -2.56148,2.6762 -1.79217,1.2176 -2.81695,1.94738 -2.81695,2.43423 0.25644,0.24294 0.76835,0.72978 1.28026,1.45957 0.76834,0.97271 0.76834,1.45956 0,1.45956 0,0 -0.76835,-0.48685 -1.28026,-1.45956 z m -2.56148,-3.64989 c -0.25547,-0.24391 0,-0.72979 0.51288,-1.21663 1.02382,-0.72979 1.02382,-1.21663 0,-2.67619 -0.51288,-1.21663 -0.76835,-1.21663 -1.79313,-0.97369 -0.76835,0 -1.28026,0 -1.5367,-0.24294 -0.25643,-0.24392 -0.25643,-0.48686 -0.25643,-0.73076 0.25643,0 2.04956,-0.24293 4.3546,-0.48684 6.14678,-0.48588 6.14678,-0.48588 0.76835,5.11042 -1.28122,1.45957 -1.79313,1.70347 -2.04957,1.21663 z m 4.35461,-5.59631 c -0.51287,0 -3.07339,0.24294 -3.07339,0.48686 0,0.24294 0.25548,0.72977 0.51191,1.21663 0.25644,0.72977 0.25644,0.72977 0.25644,0.72977 1.53669,-0.97369 1.53669,-0.97369 1.53669,-0.97369 0.51191,-0.72977 1.02382,-1.21663 0.76835,-1.45957 z m -7.68347,-1.70346 c -1.79313,-0.72979 -2.30504,-4.13674 -1.02478,-5.11043 1.28026,-0.72977 5.89034,-2.18934 6.40321,-1.9464 0.76835,0.2439 0.51191,0.72978 -0.51287,0.97369 -2.56052,0.72978 -5.37843,1.70347 -5.6339,2.43326 -0.25644,0.72977 0.51191,2.43325 1.28025,2.67619 0.25644,0 1.79313,-0.24294 3.32983,-0.72979 3.32886,-0.97271 3.32886,-0.97271 3.32886,-0.48684 0,0.2439 -0.76835,0.97369 -2.04861,1.21663 -3.07338,0.97369 -4.09817,1.21663 -5.12199,0.97369 z m -3.58625,-7.29977 c 0,-0.72979 0,-1.94642 -0.25548,-2.92011 -0.25643,-1.9464 0.25548,-2.92009 2.0486,-3.64989 3.32983,-1.45956 6.40321,0.24392 6.40321,3.40695 0,2.18936 -2.81791,3.89283 -5.63486,3.40599 -1.02478,-0.24294 -1.53669,-0.24294 -1.53669,0.2439 -0.51191,0.97273 -1.02478,0.72979 -1.02478,-0.48684 z m 5.12295,-1.21663 c 2.0486,-0.48685 2.56051,-2.92011 1.02382,-4.13674 -1.02382,-1.21663 -3.5853,-0.72977 -4.86556,0.48686 -1.02478,0.97271 -1.28121,2.18934 -0.51287,2.43325 0.25644,0.24294 0.51287,0.24294 0.51287,0 0,-0.24391 0,-0.48685 0.25548,-0.48685 0.25643,0 0.51287,0.48685 0.51287,0.97369 0,1.45957 0.76835,1.45957 3.07339,0.72979 z m -6.91512,-8.27346 c 0,-1.21663 -0.25644,-2.43326 -0.25644,-2.6762 -0.25643,-0.72979 0.51191,-0.97369 5.37843,-1.46052 2.81695,-0.24296 2.81695,-0.24296 2.81695,-0.24296 0.25643,2.19032 0.25643,2.19032 0.25643,2.19032 0.25644,1.21663 0.25644,2.43326 0.51191,2.6762 0,0.48685 0,0.72979 -0.51191,0.72979 -0.51191,0 -1.02478,-1.45957 -1.02478,-3.40599 0,-0.97369 0,-0.97369 -1.28026,-0.73074 -1.28025,0 -1.28025,0 -1.28025,0 0.25547,1.94737 0.25547,1.94737 0.25547,1.94737 0,1.94642 -0.25547,3.16305 -0.76834,1.94642 -0.25548,-0.2439 -0.25548,-1.21663 -0.25548,-1.94642 0,-0.97369 -0.25644,-1.46053 -0.76835,-1.70347 -0.76834,-0.2439 -2.56147,0.24294 -2.30503,0.72978 0,0.24391 0.25547,1.21663 0.51191,2.43326 0,1.45958 0,1.70348 -0.51191,1.70348 -0.25644,0 -0.51288,-0.48685 -0.76835,-2.19032 z M 110.92467,109.8595 c 11.78163,-6.32609 21.00179,-15.573216 27.405,-27.495606 4.86651,-9.00324 7.42702,-17.76258 8.19537,-29.19909 0.25644,-2.92009 0.25644,-2.92009 0.25644,-2.92009 -2.04861,0 -2.04861,0 -2.04861,0 -2.30504,0 -6.4032,0.48683 -9.47659,1.21663 -2.0486,0.24293 -2.0486,0.24293 -2.0486,0.24293 -0.51288,5.84021 -0.51288,5.84021 -0.51288,5.84021 -1.02382,12.40923 -4.35364,22.14226 -10.50041,29.19908 -4.35461,4.86652 -11.26972,9.24618 -17.9284,11.4365 -1.53669,0.48685 -3.07338,0.97273 -3.07338,0.97273 -1.02479,0.973686 3.58528,13.139956 4.86554,13.139956 0.25644,0 2.30504,-1.21663 4.86652,-2.43325 z m 3.58625,-7.78661 c -1.53669,-1.70347 -2.81791,-3.892826 -2.56147,-4.379666 0.25643,-0.24293 1.02478,0.24294 1.79313,1.45957 1.79216,2.677156 2.30504,2.920096 3.32886,2.433256 1.53669,-0.72979 1.53669,-1.45957 0,-3.892826 -1.02382,-1.21662 -1.28026,-1.94642 -1.02382,-2.19032 0.51191,-0.48685 1.02382,0.2439 2.56051,2.67716 1.28122,2.189356 1.02478,3.405986 -0.76835,4.136726 -1.53669,0.72979 -2.30504,0.72979 -3.32886,-0.2439 z m 9.22016,-8.273466 c -1.28122,-1.21565 -2.30504,-2.18934 -2.30504,-2.43228 0,-0.48685 1.79217,-0.48685 4.86556,0 1.79312,0.24294 1.79312,0.24294 1.79312,0.24294 -1.79312,-1.70348 -1.79312,-1.70348 -1.79312,-1.70348 -1.79217,-1.70347 -2.04861,-2.19032 -1.28026,-2.19032 0.51191,0 5.37842,4.13674 5.12295,4.62358 -0.25644,0.24391 -1.02478,0.24391 -2.56148,0 -4.09816,-0.48684 -4.09816,-0.48684 -2.30504,1.21662 0.76835,0.7298 1.5367,1.70349 1.5367,1.70349 0,0.72977 -0.76835,0.24293 -3.07339,-1.46055 z m 7.68347,-9.97596 c -1.28026,-0.72978 -2.56148,-1.45957 -2.56148,-1.70347 0,-0.24294 0,-0.48587 0.25644,-0.48587 0.76834,0 6.40321,2.91912 6.14677,3.16302 -0.25644,0.48686 -1.02478,0.48686 -3.84173,-0.97368 z m 0.51191,-7.78661 c -0.51191,-0.48588 1.53669,-5.10945 1.79313,-4.86652 0.25643,0 0.25643,0.2439 0.25643,0.2439 0,0.24294 0,0.48588 -0.25643,0.97273 -0.25644,0.72978 0,0.97369 2.56147,1.70347 1.79217,0.48685 3.07339,0.97369 3.07339,1.21663 0,0.72979 0.25547,0.72979 -3.07339,-0.48684 -3.07338,-0.72979 -3.58626,-0.72979 -3.58626,0.48684 0,0.48685 -0.51191,0.97369 -0.76834,0.72979 z m 2.81791,-10.94966 c 0,-0.24294 0.76835,-0.72979 1.79217,-1.21663 1.79313,-0.97273 1.79313,-0.97273 1.79313,-0.97273 -1.5367,-0.97369 -1.5367,-0.97369 -1.5367,-0.97369 -0.76834,-0.48684 -1.28025,-1.21663 -1.28025,-1.45956 0,-0.73074 0.51191,-0.48684 2.0486,0.97272 1.02478,0.97369 1.79313,1.46053 3.07338,1.46053 2.04861,0.48589 1.79313,0.97273 -0.25643,0.97273 -1.02382,0 -2.30504,0.2439 -3.5853,0.97369 -1.79313,0.72978 -2.0486,0.72978 -2.0486,0.24294 z M 168.03971,104.993 c -2.30504,-1.94642 -4.86652,-4.86652 -5.8913,-5.840206 -4.86556,-6.08314 -9.73207,-14.35565 -11.78067,-20.92562 -1.02479,-2.6762 -3.07339,-11.19356 -3.32983,-12.65314 0,-0.24294 -0.25643,0.72979 -0.76834,2.19032 -2.81792,10.46282 -8.19634,19.95193 -15.11146,27.73855 -2.30504,2.67716 -8.70825,8.760306 -12.03711,11.436486 -1.53669,1.21663 -1.53669,1.21663 -0.76834,1.21663 3.58529,-0.97273 11.78163,-2.18936 16.39171,-2.43326 9.73207,-0.97368 22.53848,0 32.78342,2.19032 2.04861,0.48684 4.09721,0.97273 4.09721,0.97273 0.25644,0 -1.28026,-1.70252 -3.58529,-3.89281 z m -34.06369,-1.70349 c -1.02478,-0.24293 -1.53669,-0.72977 -1.53669,-1.70346 0,-0.72979 1.28026,-0.72979 1.53669,0 0.25548,0.73074 2.56052,0.48684 2.56052,-0.24294 0,-0.24391 -0.76835,-0.72979 -1.5367,-0.97369 -2.56051,-0.729788 -3.32886,-1.702506 -2.0486,-3.163046 0.51191,-0.97271 3.5853,-0.97271 4.35364,0 0.25644,0.48685 0.51288,0.72979 0.51288,0.97369 0,0.48685 -1.5367,0.48685 -1.79313,0 -0.25644,-0.48684 -2.30504,-0.48684 -2.04861,0 0,0.24294 0.76835,0.72979 1.79217,0.97273 2.04957,0.486838 2.56148,1.460526 2.04957,2.920096 -0.25644,0.48685 -0.76835,0.97369 -1.5367,1.21662 -1.02478,0.2439 -1.02478,0.2439 -2.30504,0 z m 5.37843,-0.97272 c 0,-0.73074 0,-2.19031 -0.25644,-3.406936 0,-2.19032 0,-2.19032 0,-2.19032 2.30504,0 2.30504,0 2.30504,0 1.53669,0 2.30504,0.2439 2.81695,0.73076 1.28122,1.21662 0.25644,3.163026 -2.0486,3.163026 -1.02478,0 -1.28026,0.24294 -1.28026,1.21663 -0.25644,1.45956 -1.53669,1.94642 -1.53669,0.48684 z m 3.58529,-3.649876 c 0,-0.48685 -0.25643,-0.73075 -0.51191,-0.73075 -1.28121,-0.24294 -1.79313,0 -1.53669,0.97369 0.25548,0.972718 2.0486,0.729778 2.0486,-0.24294 z m 3.07339,1.215658 c 0,-2.919138 0,-3.163038 0.76835,-3.163038 0.51287,0 0.76834,0.2439 0.76834,2.67716 0,2.676196 0,2.676196 0,2.676196 1.79313,0 1.79313,0 1.79313,0 1.28026,0 1.5367,0.2439 1.5367,0.48685 0,0.48684 -0.51191,0.72977 -2.30504,0.72977 -2.56148,0 -2.56148,0 -2.56148,0 z m 5.63486,0 c 0,-3.163038 0,-3.163038 0,-3.163038 1.28026,0 1.28026,0 1.28026,0 0.76835,0 1.28122,0.2439 1.28122,0.48684 0.25547,0.24392 0.51191,1.21663 0.76834,1.94642 0.51191,1.703466 0.51191,1.703466 0.51191,1.703466 0.51192,-2.189346 0.51192,-2.189346 0.51192,-2.189346 0.51287,-1.70348 0.76834,-1.94738 1.53669,-1.94738 1.28122,0 1.28122,0 1.28122,0 0,3.163038 0,3.163038 0,3.163038 0,2.677168 -0.25644,3.406938 -0.51288,3.406938 -0.51191,0 -0.76834,-0.72977 -0.76834,-2.43325 -0.25548,-2.189346 -0.25548,-2.189346 -0.25548,-2.189346 -0.51287,2.189346 -0.51287,2.189346 -0.51287,2.189346 -0.51191,1.70348 -0.76834,2.19032 -1.28026,2.19032 -0.76834,0.24293 -1.02478,-0.2439 -1.53669,-2.19032 -0.51191,-2.189346 -0.51191,-2.189346 -0.51191,-2.189346 0,2.189346 0,2.189346 0,2.189346 0,1.94642 -0.25643,2.43325 -1.02478,2.43325 -0.51191,0 -0.76835,-0.24293 -0.76835,-3.406938 z m 39.18662,-1.946408 c 0,-0.97273 0.25548,-3.64988 0.25548,-5.83924 0,-15.33029 -9.22016,-29.44299 -24.33064,-36.9857 -1.53766,-0.72979 -2.81791,-1.21663 -2.81791,-1.21663 -0.25644,0.24294 -0.25644,3.16304 -0.25644,6.56999 0,5.5963 0,6.56903 1.02478,9.97596 2.81791,10.21989 8.45181,18.00649 17.67196,24.57551 2.04956,1.46055 7.42799,4.623578 7.9399,4.623578 0,0 0.25644,-0.729778 0.51287,-1.703468 z m -86.05672,-2.18936 c 15.36693,-4.86651 23.56327,-16.78986 25.61187,-37.22959 0.51288,-5.35241 0.51288,-5.83925 0,-5.83925 -1.02382,0 -8.45181,3.64989 -11.26876,5.5963 -9.22112,5.8402 -15.87979,15.81617 -18.18483,26.03605 -1.024782,5.83923 -1.024782,12.40922 0.25644,12.40922 0.25547,0 1.79216,-0.48587 3.58528,-0.97273 z"
       id="path2898"
       stroke-width="0.748922"
       fill="#ff0000"
       style="fill:#ff0000;stroke:#ff0000;stroke-opacity:1;filter:url(#filter5367)"
       transform="matrix(1.4697747,0,0,1.4697747,-67.373666,-48.484839)" /><text
       xml:space="preserve"
       style="font-weight:bold;font-size:22.7977px;font-family:'Bauhaus 93';-inkscape-font-specification:'Bauhaus 93 Bold';text-align:center;text-anchor:middle;fill:#ff0000;stroke:none;stroke-width:1.53596;stroke-dasharray:none;stroke-opacity:1"
       x="148.93227"
       y="202.0977"
       id="text3258"><tspan
         sodipodi:role="line"
         id="tspan3256"
         style="fill:#ff0000;stroke-width:1.53596"
         x="148.93227"
         y="202.0977"><tspan
   style="fill:#ff0000;stroke-width:1.53596"
   id="tspan3252">Unity</tspan> . Equality . <tspan
   style="fill:#ff0000;stroke-width:1.53596"
   id="tspan3254">Progress</tspan></tspan></text></g></svg>
